<svg class="topography-shape js-shape" width="1200px" height="580px" viewBox="0 0 1200 580" version="1.1" xmlns="http://www.w3.org/2000/svg" xmlns:xlink="http://www.w3.org/1999/xlink">
  <defs>
    <filter id="f1" x="0" y="0">
      <feGaussianBlur in="SourceGraphic" stdDeviation="2" />
    </filter>
  </defs>
  
  <path d="M734.567 34.372c-28.692 61.724-23.266 100.422 16.275 116.094 59.313 23.508 200.347 32.911 259.299 83.906 58.95 50.994 238.697 11.572 269.438-75.95C1310.32 70.9 1365.669-64 1073.808-64c-194.576 0-307.654 32.79-339.24 98.372h-.001z" fill="#FFFA72" fill-rule="nonzero"></path>
  <path d="M734.567 34.372c-28.692 61.724-23.266 100.422 16.275 116.094 59.313 23.508 200.347 32.911 259.299 83.906 58.95 50.994 238.697 11.572 269.438-75.95C1310.32 70.9 1365.669-64 1073.808-64c-194.576 0-307.654 32.79-339.24 98.372h-.001z" fill="#FFFA72" fill-rule="nonzero" transform="translate(-1800, 60) scale(2.8, 2.8) skewX(30) " style="position: relative; z-index: 0; fill: rgb(17,26,35);"></path>
  <path d="M734.567 34.372c-28.692 61.724-23.266 100.422 16.275 116.094 59.313 23.508 200.347 32.911 259.299 83.906 58.95 50.994 238.697 11.572 269.438-75.95C1310.32 70.9 1365.669-64 1073.808-64c-194.576 0-307.654 32.79-339.24 98.372h-.001z" fill="#FFFA72" fill-rule="nonzero" transform="translate(-1650, 55) scale(2.65, 2.65) skewX(27.5) " style="position: relative; z-index: 1; fill: rgb(24,36,48);"></path>
  <path d="M734.567 34.372c-28.692 61.724-23.266 100.422 16.275 116.094 59.313 23.508 200.347 32.911 259.299 83.906 58.95 50.994 238.697 11.572 269.438-75.95C1310.32 70.9 1365.669-64 1073.808-64c-194.576 0-307.654 32.79-339.24 98.372h-.001z" fill="#FFFA72" fill-rule="nonzero" transform="translate(-1500, 50) scale(2.5, 2.5) skewX(25) " style="position: relative; z-index: 2; fill: rgb(31, 46, 61);"></path>
  <path d="M734.567 34.372c-28.692 61.724-23.266 100.422 16.275 116.094 59.313 23.508 200.347 32.911 259.299 83.906 58.95 50.994 238.697 11.572 269.438-75.95C1310.32 70.9 1365.669-64 1073.808-64c-194.576 0-307.654 32.79-339.24 98.372h-.001z" fill="#FFFA72" fill-rule="nonzero" transform="translate(-1350, 45) scale(2.3499999999999996, 2.3499999999999996) skewX(22.5) " style="position: relative; z-index: 3; fill: rgb( 37,56 ,74);"></path>
  <path d="M734.567 34.372c-28.692 61.724-23.266 100.422 16.275 116.094 59.313 23.508 200.347 32.911 259.299 83.906 58.95 50.994 238.697 11.572 269.438-75.95C1310.32 70.9 1365.669-64 1073.808-64c-194.576 0-307.654 32.79-339.24 98.372h-.001z" fill="#FFFA72" fill-rule="nonzero" transform="translate(-1200, 40) scale(2.2, 2.2) skewX(20) " style="position: relative; z-index: 4; fill: rgb(44, 65, 87);"></path>
  <path d="M734.567 34.372c-28.692 61.724-23.266 100.422 16.275 116.094 59.313 23.508 200.347 32.911 259.299 83.906 58.95 50.994 238.697 11.572 269.438-75.95C1310.32 70.9 1365.669-64 1073.808-64c-194.576 0-307.654 32.79-339.24 98.372h-.001z" fill="#FFFA72" fill-rule="nonzero" transform="translate(-1050, 35) scale(2.05, 2.05) skewX(17.5) " style="position: relative; z-index: 5; fill: rgb(50,75, 100);"></path>
  <path d="M734.567 34.372c-28.692 61.724-23.266 100.422 16.275 116.094 59.313 23.508 200.347 32.911 259.299 83.906 58.95 50.994 238.697 11.572 269.438-75.95C1310.32 70.9 1365.669-64 1073.808-64c-194.576 0-307.654 32.79-339.24 98.372h-.001z" fill="#FFFA72" fill-rule="nonzero" transform="translate(-900, 30) scale(1.9, 1.9) skewX(15) " style="position: relative; z-index: 6; fill: rgb(57,85,113);"></path>
  <path d="M734.567 34.372c-28.692 61.724-23.266 100.422 16.275 116.094 59.313 23.508 200.347 32.911 259.299 83.906 58.95 50.994 238.697 11.572 269.438-75.95C1310.32 70.9 1365.669-64 1073.808-64c-194.576 0-307.654 32.79-339.24 98.372h-.001z" fill="#FFFA72" fill-rule="nonzero" transform="translate(-750, 25) scale(1.75, 1.75) skewX(12.5) " style="position: relative; z-index: 7; fill: rgb(63,95, 126);"></path>
  <path d="M734.567 34.372c-28.692 61.724-23.266 100.422 16.275 116.094 59.313 23.508 200.347 32.911 259.299 83.906 58.95 50.994 238.697 11.572 269.438-75.95C1310.32 70.9 1365.669-64 1073.808-64c-194.576 0-307.654 32.79-339.24 98.372h-.001z" fill="#FFFA72" fill-rule="nonzero" transform="translate(-600, 20) scale(1.6, 1.6) skewX(10) " style="position: relative; z-index: 8; fill: rgb(70, 105, 140);"></path>
  <path d="M734.567 34.372c-28.692 61.724-23.266 100.422 16.275 116.094 59.313 23.508 200.347 32.911 259.299 83.906 58.95 50.994 238.697 11.572 269.438-75.95C1310.32 70.9 1365.669-64 1073.808-64c-194.576 0-307.654 32.79-339.24 98.372h-.001z" fill="#FFFA72" fill-rule="nonzero" transform="translate(-450, 15) scale(1.45, 1.45) skewX(7.5) " style="position: relative; z-index: 9; fill: rgb(76, 114, 153);"></path>
  <path d="M734.567 34.372c-28.692 61.724-23.266 100.422 16.275 116.094 59.313 23.508 200.347 32.911 259.299 83.906 58.95 50.994 238.697 11.572 269.438-75.95C1310.32 70.9 1365.669-64 1073.808-64c-194.576 0-307.654 32.79-339.24 98.372h-.001z" fill="#FFFA72" fill-rule="nonzero" transform="translate(-300, 10) scale(1.3, 1.3) skewX(5) " style="position: relative; z-index: 10; fill: rgb(83,124, 166);"></path>
  <path d="M734.567 34.372c-28.692 61.724-23.266 100.422 16.275 116.094 59.313 23.508 200.347 32.911 259.299 83.906 58.95 50.994 238.697 11.572 269.438-75.95C1310.32 70.9 1365.669-64 1073.808-64c-194.576 0-307.654 32.79-339.24 98.372h-.001z" fill="#FFFA72" fill-rule="nonzero" transform="translate(-150, 5) scale(1.15, 1.15) skewX(2.5) " style="position: relative; z-index: 11; fill: rgb(83,124, 166);"></path>
  
</svg>